<?xml version="1.0" standalone="no"?>
<svg xmlns="http://www.w3.org/2000/svg" viewBox="0 0 157.161 29" width="157.161" height="29"><g fill="#8dc63f" color="#8dc63f" transform="translate(0, 0) scale(0.4202899)"><svg width="69.0" height="69.0" x="0.0" y="0.0" viewBox="0 0 69 69"><g><g><g><path d="M18.46002,47.85156c-3.46002,0-6.26001,2.81-6.26001,6.27002c0,3.45996,2.79999,6.25995,6.26001,6.25995     s6.26001-2.79999,6.26001-6.25995C24.72003,50.66156,21.92004,47.85156,18.46002,47.85156z M18.46002,57.63153     c-1.94,0-3.51001-1.57996-3.51001-3.50995c0-1.94,1.57001-3.52002,3.51001-3.52002s3.51001,1.58002,3.51001,3.52002     C21.97003,56.05157,20.40002,57.63153,18.46002,57.63153z"></path></g><g><path d="M18.45953,52.10559c-1.10986,0-2.01318,0.90332-2.01318,2.0127c0,1.11035,0.90332,2.01367,2.01318,2.01367     s2.0127-0.90332,2.0127-2.01367C20.47223,53.00891,19.5694,52.10559,18.45953,52.10559z"></path></g><g><path d="M55.20001,47.85156c-3.45996,0-6.26001,2.81-6.26001,6.27002c0,3.45996,2.80005,6.25995,6.26001,6.25995     c3.46002,0,6.27002-2.79999,6.27002-6.25995C61.47003,50.66156,58.66003,47.85156,55.20001,47.85156z M55.20001,57.63153     c-1.94,0-3.51001-1.57996-3.51001-3.50995c0-1.94,1.57001-3.52002,3.51001-3.52002s3.51001,1.58002,3.51001,3.52002     C58.71002,56.05157,57.14001,57.63153,55.20001,57.63153z"></path></g><g><path d="M55.20221,52.10559c-1.11035,0-2.01367,0.90332-2.01367,2.0127c0,1.11035,0.90332,2.01367,2.01367,2.01367     c1.10938,0,2.0127-0.90332,2.0127-2.01367C57.2149,53.00891,56.31158,52.10559,55.20221,52.10559z"></path></g></g><g><path d="M32.5,30.99158c0.25-3.08002-3.40997-5.17004-5.96997-3.20001c-0.48047-1.37207-1.58154-2.1778-2.7865-2.40906    c0.00311-0.02777,0.0163-0.052,0.0163-0.08063v-9.34125c6.93329-0.53912,5.69629-7.1076,5.83777-7.33044    c-0.16547,0.12921-8.11932-1.3103-7.33777,8.05737c-1.72491-3.54755-6.51385-2.93366-6.61511-2.97321    c0.10992,0.1485-1.11328,7.34107,6.61511,7.36292v4.22461c0,0.03082,0.01392,0.05701,0.01752,0.08685    c-1.09595,0.21259-2.10834,0.89856-2.64734,2.08282c-2.06-1.10999-4.70001-0.03998-5.34998,2.27997    c-2.08002-1.01996-4.40002,0.12006-5.10999,2.06h27.87C35.94,30.56153,34.08002,30.14154,32.5,30.99158z"></path></g><g><g><path d="M2.5,45.33154v6.78003c0,1.51996,1.23004,2.75,2.75,2.75h5.49005c-0.03003-0.23999-0.04004-0.48999-0.04004-0.73999     c0-4.28003,3.47998-7.77002,7.76001-7.77002s7.76001,3.48999,7.76001,7.77002c0,0.25-0.01001,0.5-0.04004,0.73999h21.30005     C47.45001,54.62158,47.44,54.37158,47.44,54.12158c0-4.28003,3.48004-7.77002,7.76001-7.77002     c4.28003,0,7.77002,3.48999,7.77002,7.77002c0,0.25-0.01001,0.5-0.04004,0.73999H63.75c1.52002,0,2.75-1.23004,2.75-2.75     v-6.78003H2.5z M5.84003,50.32153H4v-2.19995h1.84003c0.60999,0,1.09998,0.48999,1.09998,1.09998     S6.45001,50.32153,5.84003,50.32153z"></path></g><g><path d="M44.40002,36.06152c0-1.51996-1.22998-2.75-2.75-2.75H5.25c-1.51996,0-2.75,1.23004-2.75,2.75v7.76965h41.90002V36.06152     z"></path></g><g><path d="M66.05005,32.51154l-6.08002-9.25c-0.51001-0.76996-1.37-1.23999-2.29999-1.23999h-8.84003     c-1.52002,0-2.75,1.23999-2.75,2.75v19.06H66.5v-9.81C66.5,33.48157,66.35004,32.96155,66.05005,32.51154z M51.71002,38.50153     c0,0.42004-0.34003,0.75-0.75,0.75c-0.41998,0-0.75-0.32996-0.75-0.75v-1.44c0-0.40997,0.33002-0.75,0.75-0.75     c0.40997,0,0.75,0.34003,0.75,0.75V38.50153z M49.83002,34.27155v-8.5h7.31l5.58002,8.5H49.83002z"></path></g></g></g></svg></g><line x1="41" y1="1" x2="41" y2="28" stroke="#555" stroke-linecap="round"></line><path fill="#555" fill-rule="nonzero" d="M13.23 18.28L0 18.28L0 16.80L1.91 16.48L1.91 3.04L0 2.71L0 1.22L13.10 1.22L13.10 5.32L11.12 5.32L10.93 3.04L4.22 3.04L4.22 8.55L10.75 8.55L10.75 10.37L4.22 10.37L4.22 16.48L11.07 16.48L11.26 14.19L13.23 14.19L13.23 18.28ZM20.99 16.72L20.99 16.72Q22.14 16.72 23.01 16.01Q23.88 15.30 23.88 14.27L23.88 14.27L25.96 14.27L25.98 14.34Q26.04 15.98 24.52 17.26Q23.00 18.53 20.99 18.53L20.99 18.53Q18.22 18.53 16.76 16.72Q15.30 14.92 15.30 12.19L15.30 12.19L15.30 11.70Q15.30 8.99 16.77 7.18Q18.23 5.37 20.99 5.37L20.99 5.37Q22.51 5.37 23.72 5.87Q24.94 6.38 25.73 7.25L25.73 7.25L25.84 10.07L24 10.07L23.50 8.07Q23.09 7.68 22.44 7.43Q21.80 7.18 20.99 7.18L20.99 7.18Q19.17 7.18 18.39 8.49Q17.61 9.80 17.61 11.70L17.61 11.70L17.61 12.19Q17.61 14.13 18.39 15.43Q19.16 16.72 20.99 16.72ZM28.24 12.08L28.24 11.82Q28.24 9.01 29.77 7.19Q31.29 5.37 33.90 5.37L33.90 5.37Q36.53 5.37 38.06 7.18Q39.59 9 39.59 11.82L39.59 11.82L39.59 12.08Q39.59 14.92 38.06 16.72Q36.54 18.53 33.93 18.53L33.93 18.53Q31.29 18.53 29.77 16.72Q28.24 14.91 28.24 12.08L28.24 12.08ZM30.55 11.82L30.55 12.08Q30.55 14.10 31.40 15.41Q32.25 16.72 33.93 16.72L33.93 16.72Q35.57 16.72 36.42 15.41Q37.28 14.10 37.28 12.08L37.28 12.08L37.28 11.82Q37.28 9.83 36.42 8.51Q35.57 7.18 33.90 7.18L33.90 7.18Q32.24 7.18 31.39 8.51Q30.55 9.83 30.55 11.82L30.55 11.82ZM41.09 1.22L55.27 1.22L55.27 4.99L53.30 4.99L53.12 3.04L49.34 3.04L49.34 16.48L51.25 16.80L51.25 18.28L45.12 18.28L45.12 16.80L47.03 16.48L47.03 3.04L43.23 3.04L43.07 4.99L41.09 4.99L41.09 1.22ZM57.77 7.42L55.86 7.09L55.86 5.60L59.84 5.60L60.06 7.44Q60.60 6.47 61.39 5.92Q62.18 5.37 63.20 5.37L63.20 5.37Q63.47 5.37 63.76 5.41Q64.04 5.45 64.20 5.50L64.20 5.50L63.89 7.64L62.58 7.57Q61.66 7.57 61.04 8.00Q60.42 8.43 60.08 9.20L60.08 9.20L60.08 16.48L61.99 16.80L61.99 18.28L55.86 18.28L55.86 16.80L57.77 16.48L57.77 7.42ZM75.01 18.28L74.86 16.41Q74.26 17.43 73.32 17.98Q72.38 18.53 71.14 18.53L71.14 18.53Q69.08 18.53 67.92 17.20Q66.76 15.88 66.76 13.08L66.76 13.08L66.76 7.42L65.31 7.09L65.31 5.60L66.76 5.60L69.07 5.60L69.07 13.10Q69.07 15.13 69.67 15.89Q70.27 16.65 71.53 16.65L71.53 16.65Q72.76 16.65 73.56 16.15Q74.37 15.66 74.78 14.74L74.78 14.74L74.78 7.42L73.08 7.09L73.08 5.60L74.78 5.60L77.09 5.60L77.09 16.48L78.54 16.80L78.54 18.28L75.01 18.28ZM86.06 16.72L86.06 16.72Q87.21 16.72 88.08 16.01Q88.96 15.30 88.96 14.27L88.96 14.27L91.03 14.27L91.05 14.34Q91.11 15.98 89.60 17.26Q88.08 18.53 86.06 18.53L86.06 18.53Q83.30 18.53 81.84 16.72Q80.38 14.92 80.38 12.19L80.38 12.19L80.38 11.70Q80.38 8.99 81.84 7.18Q83.31 5.37 86.06 5.37L86.06 5.37Q87.59 5.37 88.80 5.87Q90.01 6.38 90.81 7.25L90.81 7.25L90.91 10.07L89.07 10.07L88.57 8.07Q88.16 7.68 87.52 7.43Q86.87 7.18 86.06 7.18L86.06 7.18Q84.25 7.18 83.47 8.49Q82.69 9.80 82.69 11.70L82.69 11.70L82.69 12.19Q82.69 14.13 83.46 15.43Q84.23 16.72 86.06 16.72ZM94.90 1.82L92.99 1.49L92.99 0L97.21 0L97.21 10.59L98.68 10.59L101.39 7.24L100.23 7.09L100.23 5.60L105.54 5.60L105.54 7.09L103.99 7.39L100.65 11.38L104.72 16.52L106.16 16.80L106.16 18.28L100.90 18.28L100.90 16.80L102.08 16.65L98.72 12.43L97.21 12.43L97.21 16.48L99.12 16.80L99.12 18.28L92.99 18.28L92.99 16.80L94.90 16.48L94.90 1.82Z" transform="translate(51, 5.36)"></path></svg>